<svg width="24" height="24" viewBox="0 0 24 24" fill="none" xmlns="http://www.w3.org/2000/svg">
<path fill-rule="evenodd" clip-rule="evenodd" d="M5.06256 4C5.34437 4 5.61463 4.11474 5.8139 4.31898C6.01317 4.52321 6.12512 4.80022 6.12512 5.08906V14.5275H17.3741L15.9998 13.119C15.8121 12.9126 15.71 12.6395 15.7148 12.3574C15.7197 12.0752 15.8312 11.8061 16.0259 11.6065C16.2205 11.407 16.4832 11.2927 16.7585 11.2877C17.0337 11.2827 17.3001 11.3875 17.5016 11.5798L20.6893 14.847C20.8882 15.0512 21 15.328 21 15.6166C21 15.9052 20.8882 16.182 20.6893 16.3862L17.5016 19.6534C17.4043 19.7604 17.287 19.8462 17.1567 19.9057C17.0263 19.9652 16.8856 19.9973 16.7429 19.9998C16.6003 20.0024 16.4586 19.9755 16.3262 19.9207C16.1939 19.866 16.0738 19.7844 15.9729 19.681C15.872 19.5776 15.7924 19.4544 15.739 19.3188C15.6855 19.1832 15.6593 19.038 15.6618 18.8917C15.6643 18.7455 15.6955 18.6013 15.7536 18.4677C15.8117 18.3341 15.8954 18.2139 15.9998 18.1142L17.3741 16.7057H5.06256C4.78075 16.7057 4.51048 16.5909 4.31122 16.3867C4.11195 16.1824 4 15.9054 4 15.6166V5.08906C4 4.80022 4.11195 4.52321 4.31122 4.31898C4.51048 4.11474 4.78075 4 5.06256 4Z" fill="black"/>
</svg>
