<svg width="94" height="94" viewBox="0 0 94 94" fill="none" xmlns="http://www.w3.org/2000/svg">
<path d="M79.4375 85.4735C72.718 83.5054 67.1881 79.1653 63.2519 73.4371C62.165 71.8656 60.1749 68.0028 57.7661 69.2806C54.7038 70.9109 56.3855 75.721 57.3989 78.049C59.066 81.8898 61.8566 85.5617 65.2935 88.3817C69.193 91.5909 73.9517 93.7132 78.8721 93.7646C81.391 93.794 83.3003 91.7157 83.2783 89.2629C83.2636 86.8835 81.4277 86.061 79.4375 85.4735ZM50.5839 46.6545C49.7835 44.7304 49.2327 42.2996 47.7419 40.7648C46.5228 39.5163 40.2219 41.0071 38.6063 41.2421C31.5856 42.2482 24.5063 45.0829 19.4538 50.2015C15.3045 54.3948 12.8811 61.6284 15.5836 67.1949C16.4355 68.9574 17.7867 70.4188 19.4171 71.491C22.0535 73.2242 25.2113 72.1593 27.9211 73.3637C29.6836 74.1421 30.3446 76.1763 31.9088 77.2118C34.2 78.7393 36.9613 79.4443 39.7078 79.3342C40.0236 79.3268 40.3467 79.3048 40.6552 79.2681C45.4066 78.7834 50.8116 74.6195 52.8531 70.4482C55.1811 65.6821 54.88 60.0128 53.5655 55.0043C52.8091 52.1256 51.7295 49.3937 50.5839 46.6545ZM87.6405 43.056C84.02 33.0979 71.778 32.6867 62.9435 34.1995C60.0941 34.6842 56.2019 35.5067 53.7638 37.0929C53.448 37.2985 52.956 37.629 52.743 37.9301C52.4933 38.2679 52.508 38.4956 52.6255 38.7453C54.4394 42.7329 55.9669 46.8528 57.2374 51.046C58.4344 55.0263 59.0513 59.3592 60.968 63.0824C63.6044 68.2304 67.2983 70.1471 72.9383 70.7714C75.0092 70.999 77.0214 70.1912 78.6224 68.9868C80.965 67.239 82.9185 65.1167 83.6382 62.2012C83.9539 60.9087 83.9613 59.6823 83.9613 58.3237C83.9613 56.8035 83.1461 55.1438 84.7691 54.1671C88.911 51.6849 89.1239 47.1392 87.6405 43.056ZM40.3541 37.0562C41.8375 36.6376 43.3503 36.3879 44.8485 36.1823C46.5816 35.9399 45.0027 31.3721 44.7603 30.5643C42.1386 21.7738 38.6577 10.6554 28.3691 8.53306C23.9702 7.62244 17.258 9.60525 15.4441 14.0629C14.7758 15.7079 14.9961 17.3603 14.7391 19.064C8.93018 21.2818 4.03924 27.9206 5.93392 34.1554C7.38799 38.9288 12.0439 41.389 16.8835 41.5873C25.248 41.9324 32.4669 39.274 40.3541 37.0562ZM50.7602 34.1114C53.5435 33.9278 56.3047 32.459 58.9632 31.7026C64.8675 30.0062 71.4549 30.1604 76.8158 26.841C78.1891 25.9965 78.9528 24.3956 79.533 22.9342C80.9724 19.3431 81.3102 14.7753 78.9528 11.4926C76.265 7.76197 69.9567 6.68978 65.6827 7.71791C64.8675 7.91619 64.2727 7.8501 63.9496 7.0276C63.2813 5.3826 62.2678 3.96525 61.0267 2.86369C58.4638 0.601814 54.9314 -0.367561 51.4064 0.623845C48.5938 1.40963 46.398 3.48791 45.1716 6.09494C41.485 13.9528 45.5461 25.196 49.1078 32.4957C49.4456 33.1934 49.9303 34.1701 50.7602 34.1114Z" fill="#151515"/>
</svg>
