<svg width="25" height="24" viewBox="0 0 25 24" fill="none" xmlns="http://www.w3.org/2000/svg">
<path d="M2.49176 6.62476C2.49176 5.66335 2.87368 4.74131 3.5535 4.06149C4.23332 3.38167 5.15535 2.99976 6.11676 2.99976H18.8668C19.8282 2.99976 20.7502 3.38167 21.43 4.06149C22.1098 4.74131 22.4918 5.66335 22.4918 6.62476V14.3748C22.4918 15.3362 22.1098 16.2582 21.43 16.938C20.7502 17.6178 19.8282 17.9998 18.8668 17.9998H13.6903L8.26526 21.8288C7.52076 22.3548 6.49176 21.8218 6.49176 20.9098V17.9998H6.11676C5.15535 17.9998 4.23332 17.6178 3.5535 16.938C2.87368 16.2582 2.49176 15.3362 2.49176 14.3748V6.62476Z" fill="#434343"/>
</svg>
