<svg width="24" height="24" viewBox="0 0 24 24" fill="none" xmlns="http://www.w3.org/2000/svg">
<path d="M1.99658 6.62476C1.99658 5.66335 2.3785 4.74131 3.05832 4.06149C3.73814 3.38167 4.66017 2.99976 5.62158 2.99976H18.3716C19.333 2.99976 20.255 3.38167 20.9348 4.06149C21.6147 4.74131 21.9966 5.66335 21.9966 6.62476V14.3748C21.9966 15.3362 21.6147 16.2582 20.9348 16.938C20.255 17.6178 19.333 17.9998 18.3716 17.9998H13.1951L7.77008 21.8288C7.02558 22.3548 5.99658 21.8218 5.99658 20.9098V17.9998H5.62158C4.66017 17.9998 3.73814 17.6178 3.05832 16.938C2.3785 16.2582 1.99658 15.3362 1.99658 14.3748V6.62476Z" fill="#4D4D4D"/>
</svg>
