<svg width="24" height="24" viewBox="0 0 24 24" fill="none" xmlns="http://www.w3.org/2000/svg">
<path d="M3.70129 13.0938V13.099C3.67182 13.2101 3.62073 13.3144 3.55094 13.4058C3.48115 13.4972 3.39403 13.5739 3.29456 13.6316C3.19509 13.6893 3.08523 13.7268 2.97125 13.742C2.85727 13.7573 2.74141 13.7498 2.63029 13.7202C1.87604 13.5207 2.00904 12.651 2.00904 12.651L2.04054 12.5425C2.04054 12.5425 2.08604 12.3955 2.12279 12.2887C2.57188 11.0296 3.23299 9.85653 4.07754 8.82025C5.64729 6.90575 8.28804 5 12.4793 5C16.6705 5 19.3113 6.90575 20.8828 8.82025C21.7273 9.85653 22.3885 11.0296 22.8375 12.2887C22.8752 12.397 22.9102 12.5061 22.9425 12.616L22.9478 12.6387V12.6458L22.9495 12.6493C23.005 12.872 22.9708 13.1076 22.8542 13.3053C22.7377 13.503 22.548 13.647 22.3263 13.7062C22.1045 13.7654 21.8684 13.7352 21.6688 13.6219C21.4691 13.5087 21.322 13.3215 21.259 13.1007L21.2573 13.0938L21.2433 13.05L21.182 12.8593C20.8006 11.7962 20.2414 10.8056 19.5283 9.92975C18.2298 8.346 16.058 6.75 12.4793 6.75C8.90054 6.75 6.73054 8.346 5.43029 9.92975C4.71717 10.8056 4.15797 11.7962 3.77654 12.8593L3.71529 13.05L3.70129 13.0938ZM8.10429 14.625C8.10429 13.4647 8.56523 12.3519 9.3857 11.5314C10.2062 10.7109 11.319 10.25 12.4793 10.25C13.6396 10.25 14.7524 10.7109 15.5729 11.5314C16.3934 12.3519 16.8543 13.4647 16.8543 14.625C16.8543 15.7853 16.3934 16.8981 15.5729 17.7186C14.7524 18.5391 13.6396 19 12.4793 19C11.319 19 10.2062 18.5391 9.3857 17.7186C8.56523 16.8981 8.10429 15.7853 8.10429 14.625Z" fill="#434343"/>
</svg>
