<svg width="54" height="53" viewBox="0 0 54 53" fill="none" xmlns="http://www.w3.org/2000/svg">
<path d="M38.5938 46.3747C39.6187 46.3747 40.6017 45.9791 41.3264 45.2751C42.0512 44.5711 42.4584 43.6162 42.4584 42.6205V12.5872C42.4584 11.5915 42.0512 10.6366 41.3264 9.93258C40.6017 9.22853 39.6187 8.83301 38.5938 8.83301H27V21.9726L22.1693 19.157L17.3386 21.9726V8.83301H15.4063C14.3813 8.83301 13.3983 9.22853 12.6736 9.93258C11.9488 10.6366 11.5417 11.5915 11.5417 12.5872V42.6205C11.5417 43.6162 11.9488 44.5711 12.6736 45.2751C13.3983 45.9791 14.3813 46.3747 15.4063 46.3747H38.5938Z" fill="#B3E378"/>
</svg>
