<svg width="12" height="12" viewBox="0 0 12 12" fill="none" xmlns="http://www.w3.org/2000/svg">
<path d="M1 3.31238C1 2.83167 1.19096 2.37066 1.53087 2.03075C1.87078 1.69084 2.33179 1.49988 2.8125 1.49988H9.1875C9.6682 1.49988 10.1292 1.69084 10.4691 2.03075C10.809 2.37066 11 2.83167 11 3.31238V7.18738C11 7.66808 10.809 8.1291 10.4691 8.46901C10.1292 8.80892 9.6682 8.99988 9.1875 8.99988H6.59925L3.88675 10.9144C3.5145 11.1774 3 10.9109 3 10.4549V8.99988H2.8125C2.33179 8.99988 1.87078 8.80892 1.53087 8.46901C1.19096 8.1291 1 7.66808 1 7.18738V3.31238Z" fill="#4D4D4D"/>
</svg>
