<svg width="14" height="14" viewBox="0 0 14 14" fill="none" xmlns="http://www.w3.org/2000/svg">
<path d="M1.16669 3.86507C1.16669 3.30425 1.38947 2.7664 1.78603 2.36984C2.1826 1.97327 2.72045 1.75049 3.28127 1.75049H10.7188C11.2796 1.75049 11.8174 1.97327 12.214 2.36984C12.6106 2.7664 12.8334 3.30425 12.8334 3.86507V8.38591C12.8334 8.94673 12.6106 9.48458 12.214 9.88114C11.8174 10.2777 11.2796 10.5005 10.7188 10.5005H7.69914L4.53456 12.7341C4.10027 13.0409 3.50002 12.73 3.50002 12.198V10.5005H3.28127C2.72045 10.5005 2.1826 10.2777 1.78603 9.88114C1.38947 9.48458 1.16669 8.94673 1.16669 8.38591V3.86507Z" fill="#B3B3B3"/>
</svg>
