<svg width="12" height="12" viewBox="0 0 12 12" fill="none" xmlns="http://www.w3.org/2000/svg">
<path d="M1 6.49927C3.1 1.8326 9.4 1.8326 11.5 6.49927" stroke="#4D4D4D" stroke-width="0.694737" stroke-linecap="round" stroke-linejoin="round"/>
<path d="M6.25 8.83228C6.02019 8.83228 5.79262 8.78701 5.5803 8.69906C5.36798 8.61112 5.17507 8.48221 5.01256 8.31971C4.85006 8.15721 4.72116 7.96429 4.63321 7.75197C4.54526 7.53965 4.5 7.31209 4.5 7.08228C4.5 6.85246 4.54526 6.6249 4.63321 6.41258C4.72116 6.20026 4.85006 6.00734 5.01256 5.84484C5.17507 5.68234 5.36798 5.55343 5.5803 5.46549C5.79262 5.37754 6.02019 5.33228 6.25 5.33228C6.71413 5.33228 7.15925 5.51665 7.48744 5.84484C7.81563 6.17303 8 6.61815 8 7.08228C8 7.5464 7.81563 7.99152 7.48744 8.31971C7.15925 8.6479 6.71413 8.83228 6.25 8.83228Z" fill="#4D4D4D" stroke="#4D4D4D" stroke-width="0.694737" stroke-linecap="round" stroke-linejoin="round"/>
</svg>
