<svg width="28" height="44" viewBox="0 0 28 44" fill="none" xmlns="http://www.w3.org/2000/svg">
<path d="M4.97022 6.13122C5.12118 6.01096 5.29549 5.99722 5.48778 5.99207C6.06284 5.98519 7.30822 5.99207 8.89503 5.98863C13.3446 5.9955 18.9479 5.98348 22.2221 5.98863C22.6901 5.99968 23.0467 6.32903 23.3313 6.70077C24.3917 8.08616 25.6674 10.1519 26.598 11.4157C27.0086 12.0345 27.2036 12.7251 27.2154 13.4676C27.298 18.6473 27.2028 36.2211 27.2324 43.3101C27.226 43.4316 27.1205 43.5169 26.999 43.5223C26.9866 43.5229 26.974 43.5231 26.961 43.5231C26.5046 43.53 25.1065 43.5231 23.1638 43.5266C17.8678 43.5334 3.04915 43.5231 1.07776 43.5266C0.69498 43.5351 0.75608 43.3822 0.750689 43.0129C0.750689 36.1736 0.750689 22.3249 0.750689 13.7694C0.750689 13.4361 0.750689 13.1389 0.750689 12.821C0.750689 12.3984 0.729124 12.3847 1.24488 11.603C1.39045 11.3882 1.53062 11.1666 1.68876 10.9347C2.47408 9.74929 3.41755 8.33539 4.17951 7.18435C4.5551 6.62257 4.77075 6.28928 4.95764 6.13981L4.97022 6.13122Z" fill="#B3E378"/>
<path d="M20.9079 35.3378C19.4769 34.966 18.2993 34.1462 17.4611 33.0642C17.2296 32.7674 16.8058 32.0377 16.2929 32.2791C15.6407 32.5871 15.9989 33.4957 16.2147 33.9354C16.5697 34.6609 17.164 35.3545 17.8959 35.8871C18.7263 36.4933 19.7397 36.8942 20.7875 36.9039C21.3239 36.9095 21.7305 36.5169 21.7258 36.0536C21.7227 35.6041 21.3317 35.4488 20.9079 35.3378ZM14.7634 28.0053C14.5929 27.6418 14.4756 27.1827 14.1582 26.8927C13.8986 26.6569 12.5567 26.9385 12.2127 26.9829C10.7176 27.173 9.21001 27.7084 8.13405 28.6753C7.25046 29.4673 6.73437 30.8337 7.30989 31.8852C7.4913 32.2181 7.77905 32.4941 8.12624 32.6966C8.68767 33.024 9.36014 32.8229 9.93722 33.0504C10.3126 33.1974 10.4533 33.5817 10.7864 33.7772C11.2743 34.0658 11.8624 34.1989 12.4473 34.1781C12.5145 34.1767 12.5833 34.1726 12.649 34.1657C13.6608 34.0741 14.8119 33.2876 15.2466 32.4997C15.7424 31.5994 15.6783 30.5285 15.3983 29.5825C15.2372 29.0387 15.0073 28.5227 14.7634 28.0053ZM22.6548 27.3255C21.8838 25.4445 19.2768 25.3669 17.3954 25.6526C16.7886 25.7442 15.9598 25.8995 15.4405 26.1992C15.3733 26.238 15.2685 26.3004 15.2232 26.3573C15.17 26.4211 15.1731 26.4641 15.1981 26.5113C15.5844 27.2645 15.9097 28.0427 16.1803 28.8348C16.4352 29.5866 16.5665 30.405 16.9747 31.1083C17.5362 32.0807 18.3228 32.4428 19.5239 32.5607C19.9649 32.6037 20.3934 32.4511 20.7343 32.2236C21.2332 31.8935 21.6492 31.4926 21.8025 30.9419C21.8697 30.6977 21.8713 30.4661 21.8713 30.2095C21.8713 29.9223 21.6977 29.6088 22.0433 29.4243C22.9253 28.9555 22.9707 28.0968 22.6548 27.3255ZM12.5849 26.1922C12.9008 26.1132 13.223 26.066 13.542 26.0272C13.9111 25.9814 13.5748 25.1186 13.5232 24.966C12.9649 23.3055 12.2236 21.2054 10.0326 20.8045C9.09585 20.6325 7.66645 21.007 7.28017 21.849C7.13786 22.1597 7.18477 22.4719 7.13004 22.7937C5.893 23.2126 4.85145 24.4666 5.25493 25.6443C5.56458 26.546 6.55609 27.0107 7.58669 27.0481C9.36796 27.1133 10.9053 26.6112 12.5849 26.1922ZM14.8009 25.636C15.3936 25.6013 15.9817 25.3239 16.5478 25.181C17.8051 24.8605 19.208 24.8897 20.3496 24.2627C20.642 24.1032 20.8047 23.8008 20.9282 23.5247C21.2348 22.8464 21.3067 21.9836 20.8047 21.3635C20.2323 20.6588 18.8889 20.4563 17.9787 20.6505C17.8051 20.688 17.6785 20.6755 17.6097 20.5201C17.4673 20.2094 17.2515 19.9417 16.9872 19.7336C16.4414 19.3063 15.6892 19.1232 14.9385 19.3105C14.3396 19.4589 13.872 19.8515 13.6108 20.3439C12.8257 21.8282 13.6906 23.952 14.449 25.3308C14.521 25.4626 14.6242 25.6471 14.8009 25.636Z" fill="#262626"/>
<path d="M13.1527 11.374C13.0669 11.7921 13.3364 12.2007 13.7545 12.2865C14.1727 12.3723 14.5812 12.1028 14.667 11.6847L13.1527 11.374ZM19.0944 0.998163L19.3423 0.26608L19.0944 0.998163ZM13.9099 11.5293L14.667 11.6847C14.9172 10.4652 15.1357 9.08933 15.3691 7.80116C15.6064 6.49149 15.8628 5.249 16.1967 4.20664C16.5371 3.14413 16.9255 2.39856 17.3625 1.98823C17.5685 1.79485 17.7737 1.68689 17.9874 1.64244C18.2027 1.59766 18.4803 1.60622 18.8465 1.73025L19.0944 0.998163L19.3423 0.26608C18.7661 0.0709488 18.2059 0.0180677 17.6726 0.129003C17.1377 0.240265 16.6837 0.505183 16.3044 0.861308C15.571 1.54998 15.085 2.6099 14.7246 3.73504C14.3577 4.88031 14.0868 6.20762 13.848 7.52556C13.6053 8.865 13.3988 10.1746 13.1527 11.374L13.9099 11.5293ZM19.0944 0.998163L18.8465 1.73025C19.1293 1.826 19.171 1.92218 19.1762 1.93372C19.1893 1.96247 19.2221 2.07262 19.1407 2.34107C18.9699 2.90391 18.4458 3.68844 17.6736 4.63087C16.9182 5.55296 16.0231 6.5136 15.1878 7.4504C14.3803 8.35607 13.6 9.26978 13.181 10.0231L13.8565 10.3988L14.532 10.7745C14.853 10.1972 15.5112 9.41052 16.3416 8.47917C17.1443 7.57893 18.0867 6.56587 18.8694 5.61054C19.6354 4.67556 20.3501 3.67898 20.6199 2.78997C20.7587 2.3325 20.8124 1.79905 20.5842 1.29565C20.3483 0.775022 19.8869 0.450483 19.3423 0.26608L19.0944 0.998163Z" fill="#B3E378"/>
<circle cx="13.9999" cy="10.4027" r="2.20833" fill="#262626"/>
</svg>
