<?xml version="1.0" encoding="UTF-8"?>
<svg id="_레이어_1" data-name="레이어_1" xmlns="http://www.w3.org/2000/svg" version="1.1" viewBox="0 0 556.64 785.01">
  <!-- Generator: Adobe Illustrator 29.6.1, SVG Export Plug-In . SVG Version: 2.1.1 Build 9)  -->
  <defs>
    <style>
      .st0, .st1 {
        fill: #a5e467;
      }

      .st2 {
        fill: #1d1d1d;
      }

      .st3 {
        fill: none;
        stroke: #1d1d1d;
        stroke-linejoin: round;
        stroke-width: 5.04px;
      }

      .st1 {
        stroke: #a5e467;
        stroke-miterlimit: 10;
        stroke-width: 4.61px;
      }
    </style>
  </defs>
  <rect class="st0" width="556.64" height="785.01"/>
  <polygon class="st3" points="48.12 736.85 48.12 772.13 508.52 772.13 508.52 737.1 540.46 737.1 540.46 48.38 508.52 48.38 508.52 12.88 48.12 12.88 48.12 48.12 16.18 48.12 16.18 736.85 48.12 736.85"/>
  <g>
    <ellipse class="st2" cx="27.39" cy="26.95" rx="7.79" ry="8.13"/>
    <path class="st2" d="M17.51,18.58c3.07-.35,5.54,2.62,7.21,4.81.76,1,1.51,2.01,2.08,3.12-.84.69-1.75,1.32-2.69,1.88-2.31,1.38-7.21,3.74-9.6,1.64-1.87-1.64-.27-4.09,1.42-5.1.13-.08.55-.22.58-.33.03-.1-.3-.43-.39-.55-.65-.94-1.07-1.88-.96-3.05.11-1.27,1.07-2.28,2.35-2.42Z"/>
    <path class="st2" d="M36.12,18.37c3.92-.44,4.44,3.55,2.16,5.88-.03.04-.05.09-.04.14.02.1.64.37.79.47,1.65,1.08,3.08,3.39,1.18,4.99-2.61,2.21-7.92-.66-10.34-2.21-.61-.39-1.19-.81-1.77-1.24.41-1.2,1.22-2.27,1.98-3.28,1.3-1.7,3.78-4.5,6.03-4.76Z"/>
    <path class="st2" d="M27.52,15.83c.18-.15.39-.5.62-.71,2.07-1.88,5.47-1.37,5.47,1.86,0,2.82-3.4,6.67-5.39,8.51-.12.11-.77.7-.85.7-1.42-1.23-2.73-2.61-3.89-4.09-1.14-1.46-2.44-3.48-2.31-5.42.24-3.57,4.61-3.21,6.17-.8.07.03.13,0,.18-.04Z"/>
    <path class="st2" d="M27.74,26.83c2.04.47,4.06,1.26,5.9,2.25,2.06,1.1,4.99,2.97,4.62,5.69-.26,1.9-2.74,2.64-4.23,1.64-.16.34-.21.74-.35,1.1-.62,1.54-2.04,2.44-3.67,1.72-2.57-1.15-2.64-5.95-2.62-8.31.01-1.38.01-2.75.35-4.09Z"/>
    <path class="st2" d="M27.25,26.84c.1.02.25.51.27.62.32,2.7.36,7.5-.8,9.97-1.28,2.72-4.41,2.79-5.43-.18-.05-.14-.17-.82-.26-.84-1.57,1.01-4,.25-4.22-1.74-.29-2.57,2.46-4.42,4.42-5.49s3.95-1.83,6.03-2.33Z"/>
  </g>
  <g>
    <ellipse class="st2" cx="529.37" cy="26.95" rx="7.79" ry="8.13"/>
    <path class="st2" d="M519.49,18.58c3.07-.35,5.54,2.62,7.21,4.81.76,1,1.51,2.01,2.08,3.12-.84.69-1.75,1.32-2.69,1.88-2.31,1.38-7.21,3.74-9.6,1.64-1.87-1.64-.27-4.09,1.42-5.1.13-.08.55-.22.58-.33.03-.1-.3-.43-.39-.55-.65-.94-1.07-1.88-.96-3.05.11-1.27,1.07-2.28,2.35-2.42Z"/>
    <path class="st2" d="M538.1,18.37c3.92-.44,4.44,3.55,2.16,5.88-.03.04-.05.09-.04.14.02.1.64.37.79.47,1.65,1.08,3.08,3.39,1.18,4.99-2.61,2.21-7.92-.66-10.34-2.21-.61-.39-1.19-.81-1.77-1.24.41-1.2,1.22-2.27,1.98-3.28,1.3-1.7,3.78-4.5,6.03-4.76Z"/>
    <path class="st2" d="M529.51,15.83c.18-.15.39-.5.62-.71,2.07-1.88,5.47-1.37,5.47,1.86,0,2.82-3.4,6.67-5.39,8.51-.12.11-.77.7-.85.7-1.42-1.23-2.73-2.61-3.89-4.09-1.14-1.46-2.44-3.48-2.31-5.42.24-3.57,4.61-3.21,6.17-.8.07.03.13,0,.18-.04Z"/>
    <path class="st2" d="M529.72,26.83c2.04.47,4.06,1.26,5.9,2.25,2.06,1.1,4.99,2.97,4.62,5.69-.26,1.9-2.74,2.64-4.23,1.64-.16.34-.21.74-.35,1.1-.62,1.54-2.04,2.44-3.67,1.72-2.57-1.15-2.64-5.95-2.62-8.31.01-1.38.01-2.75.35-4.09Z"/>
    <path class="st2" d="M529.24,26.84c.1.02.25.51.27.62.32,2.7.36,7.5-.8,9.97-1.28,2.72-4.41,2.79-5.43-.18-.05-.14-.17-.82-.26-.84-1.57,1.01-4,.25-4.22-1.74-.29-2.57,2.46-4.42,4.42-5.49s3.95-1.83,6.03-2.33Z"/>
  </g>
  <g>
    <ellipse class="st2" cx="27.39" cy="758.02" rx="7.79" ry="8.13"/>
    <path class="st2" d="M17.51,749.65c3.07-.35,5.54,2.62,7.21,4.81.76,1,1.51,2.01,2.08,3.12-.84.69-1.75,1.32-2.69,1.88-2.31,1.38-7.21,3.74-9.6,1.64-1.87-1.64-.27-4.09,1.42-5.1.13-.08.55-.22.58-.33.03-.1-.3-.43-.39-.55-.65-.94-1.07-1.88-.96-3.05.11-1.27,1.07-2.28,2.35-2.42Z"/>
    <path class="st2" d="M36.12,749.44c3.92-.44,4.44,3.55,2.16,5.88-.03.04-.05.09-.04.14.02.1.64.37.79.47,1.65,1.08,3.08,3.39,1.18,4.99-2.61,2.21-7.92-.66-10.34-2.21-.61-.39-1.19-.81-1.77-1.24.41-1.2,1.22-2.27,1.98-3.28,1.3-1.7,3.78-4.5,6.03-4.76Z"/>
    <path class="st2" d="M27.52,746.9c.18-.15.39-.5.62-.71,2.07-1.88,5.47-1.37,5.47,1.86,0,2.82-3.4,6.67-5.39,8.51-.12.11-.77.7-.85.7-1.42-1.23-2.73-2.61-3.89-4.09-1.14-1.46-2.44-3.48-2.31-5.42.24-3.57,4.61-3.21,6.17-.8.07.03.13,0,.18-.04Z"/>
    <path class="st2" d="M27.74,757.89c2.04.47,4.06,1.26,5.9,2.25,2.06,1.1,4.99,2.97,4.62,5.69-.26,1.9-2.74,2.64-4.23,1.64-.16.34-.21.74-.35,1.1-.62,1.54-2.04,2.44-3.67,1.72-2.57-1.15-2.64-5.95-2.62-8.31.01-1.38.01-2.75.35-4.09Z"/>
    <path class="st2" d="M27.25,757.91c.1.02.25.51.27.62.32,2.7.36,7.5-.8,9.97-1.28,2.72-4.41,2.79-5.43-.18-.05-.14-.17-.82-.26-.84-1.57,1.01-4,.25-4.22-1.74-.29-2.57,2.46-4.42,4.42-5.49,1.88-1.03,3.95-1.83,6.03-2.33Z"/>
  </g>
  <g>
    <ellipse class="st2" cx="529.37" cy="758.02" rx="7.79" ry="8.13"/>
    <path class="st2" d="M519.49,749.65c3.07-.35,5.54,2.62,7.21,4.81.76,1,1.51,2.01,2.08,3.12-.84.69-1.75,1.32-2.69,1.88-2.31,1.38-7.21,3.74-9.6,1.64-1.87-1.64-.27-4.09,1.42-5.1.13-.08.55-.22.58-.33.03-.1-.3-.43-.39-.55-.65-.94-1.07-1.88-.96-3.05.11-1.27,1.07-2.28,2.35-2.42Z"/>
    <path class="st2" d="M538.1,749.44c3.92-.44,4.44,3.55,2.16,5.88-.03.04-.05.09-.04.14.02.1.64.37.79.47,1.65,1.08,3.08,3.39,1.18,4.99-2.61,2.21-7.92-.66-10.34-2.21-.61-.39-1.19-.81-1.77-1.24.41-1.2,1.22-2.27,1.98-3.28,1.3-1.7,3.78-4.5,6.03-4.76Z"/>
    <path class="st2" d="M529.51,746.9c.18-.15.39-.5.62-.71,2.07-1.88,5.47-1.37,5.47,1.86,0,2.82-3.4,6.67-5.39,8.51-.12.11-.77.7-.85.7-1.42-1.23-2.73-2.61-3.89-4.09-1.14-1.46-2.44-3.48-2.31-5.42.24-3.57,4.61-3.21,6.17-.8.07.03.13,0,.18-.04Z"/>
    <path class="st2" d="M529.72,757.89c2.04.47,4.06,1.26,5.9,2.25,2.06,1.1,4.99,2.97,4.62,5.69-.26,1.9-2.74,2.64-4.23,1.64-.16.34-.21.74-.35,1.1-.62,1.54-2.04,2.44-3.67,1.72-2.57-1.15-2.64-5.95-2.62-8.31.01-1.38.01-2.75.35-4.09Z"/>
    <path class="st2" d="M529.24,757.91c.1.02.25.51.27.62.32,2.7.36,7.5-.8,9.97-1.28,2.72-4.41,2.79-5.43-.18-.05-.14-.17-.82-.26-.84-1.57,1.01-4,.25-4.22-1.74-.29-2.57,2.46-4.42,4.42-5.49,1.88-1.03,3.95-1.83,6.03-2.33Z"/>
  </g>
  <g>
    <ellipse class="st2" cx="283.08" cy="376.51" rx="93.33" ry="97.45"/>
    <path class="st2" d="M164.61,276.09c36.84-4.14,66.44,31.4,86.37,57.63,9.07,11.93,18.05,24.09,24.95,37.45-10.11,8.32-20.97,15.81-32.22,22.51-27.75,16.53-86.44,44.78-115.06,19.67-22.45-19.69-3.21-49.05,17.04-61.15,1.57-.94,6.63-2.59,6.96-3.92.3-1.19-3.65-5.17-4.64-6.62-7.75-11.21-12.8-22.49-11.53-36.56,1.37-15.23,12.88-27.3,28.12-29.01Z"/>
    <path class="st2" d="M387.68,273.64c47-5.3,53.26,42.52,25.94,70.46-.4.51-.66,1.05-.49,1.73.29,1.15,7.68,4.38,9.51,5.58,19.77,13,36.87,40.64,14.2,59.8-31.33,26.47-94.91-7.92-123.91-26.46-7.27-4.65-14.31-9.7-21.26-14.81,4.86-14.44,14.58-27.22,23.74-39.27,15.55-20.43,45.36-53.99,72.27-57.03Z"/>
    <path class="st2" d="M284.68,243.12c2.15-1.85,4.65-6.05,7.39-8.54,24.77-22.5,65.57-16.39,65.56,22.26-.01,33.85-40.7,79.92-64.63,101.95-1.4,1.29-9.28,8.42-10.24,8.43-17.02-14.74-32.69-31.32-46.58-49.06-13.72-17.52-29.3-41.67-27.71-64.95,2.92-42.84,55.31-38.51,74.01-9.57.79.39,1.6,0,2.21-.52Z"/>
    <path class="st2" d="M287.21,374.98c24.49,5.59,48.65,15.14,70.76,26.96,24.65,13.18,59.78,35.62,55.37,68.21-3.08,22.8-32.82,31.61-50.65,19.7-1.94,4.13-2.49,8.89-4.23,13.22-7.39,18.44-24.46,29.26-43.99,20.56-30.84-13.74-31.71-71.28-31.45-99.61.15-16.49.13-32.96,4.19-49.04Z"/>
    <path class="st2" d="M281.42,375.1c1.21.19,3.05,6.07,3.21,7.41,3.84,32.38,4.32,89.92-9.64,119.53-15.36,32.58-52.92,33.5-65.04-2.15-.58-1.7-1.98-9.84-3.15-10.1-18.85,12.12-47.92,2.95-50.64-20.91-3.51-30.84,29.49-52.93,52.95-65.79,22.48-12.32,47.38-21.88,72.3-27.99Z"/>
    <path class="st1" d="M272.32,438.44c-4.08-1.32-9.97-3.27-11.81-6.01-3.54-4.53-4.69-14.68,3.47-22.08,6.1-5.26,14.36-3.79,21.46,2.71,2.35,2.32,3.1,11.73,2.74,15.66-.76,8.1-12.21,10.76-15.85,9.72ZM297.59,338.09c-2.76,2.08-3.74,12.49-3.23,12.07.22,5.16-2.04,9.38-2.49,11.67-.95,2.71-2.54,12.13-2.52,14.47-1.28,6.18-2.43,10.98-5.51,16.52-2.2,3.53-9.79,2.35-14.33-1.57-2.13-7.2-2.95-13.35-2.01-18.4.14-3.96.38-13.97,2.03-19.18-.54-9.15,3.96-17.37,4.91-27.55,2.41-3.28,4.14-14.32,8.27-16.03,3.52-2.7,17.72-2.31,20.78,4.98.65,8-1.43,7.8-5.89,23.02Z"/>
    <circle class="st2" cx="178.34" cy="541.13" r="22.41"/>
    <circle class="st2" cx="118.58" cy="541.13" r="9.56"/>
  </g>
</svg>