<svg width="16" height="16" viewBox="0 0 16 16" fill="none" xmlns="http://www.w3.org/2000/svg">
<path fill-rule="evenodd" clip-rule="evenodd" d="M2.04652 14.8844H0.558141C0.410113 14.8844 0.268148 14.9432 0.163476 15.0479C0.058804 15.1526 0 15.2945 0 15.4426C0 15.5906 0.058804 15.7326 0.163476 15.8372C0.268148 15.9419 0.410113 16.0007 0.558141 16.0007H15.4419C15.5899 16.0007 15.7319 15.9419 15.8366 15.8372C15.9412 15.7326 16.0001 15.5906 16.0001 15.4426C16.0001 15.2945 15.9412 15.1526 15.8366 15.0479C15.7319 14.9432 15.5899 14.8844 15.4419 14.8844H13.9535V10.9774C13.9535 8.89371 13.9535 7.85184 13.548 7.05556C13.1912 6.35545 12.622 5.78624 11.9219 5.42951C11.1256 5.02393 10.0838 5.02393 8.00003 5.02393C5.9163 5.02393 4.87443 5.02393 4.07815 5.42951C3.37804 5.78624 2.80883 6.35545 2.4521 7.05556C2.04652 7.85184 2.04652 8.89371 2.04652 10.9774V14.8844ZM9.11631 12.0937C9.11643 12.2898 9.06491 12.4824 8.96693 12.6523C8.86895 12.8221 8.72797 12.9631 8.55817 13.0612V14.8844H7.44188V13.0612C7.27221 12.9632 7.13131 12.8223 7.03334 12.6527C6.93537 12.483 6.88377 12.2905 6.88374 12.0946C6.88371 11.8987 6.93524 11.7062 7.03316 11.5365C7.13108 11.3668 7.27194 11.2259 7.44158 11.1279C7.61121 11.0299 7.80366 10.9782 7.99958 10.9781C8.1955 10.9781 8.38799 11.0296 8.5577 11.1274C8.72742 11.2253 8.86839 11.3661 8.96644 11.5357C9.0645 11.7054 9.11618 11.8978 9.11631 12.0937ZM10.2326 6.56067C10.0846 6.56067 9.9426 6.61948 9.83793 6.72415C9.73325 6.82882 9.67445 6.97079 9.67445 7.11882C9.67445 7.26684 9.73325 7.40881 9.83793 7.51348C9.9426 7.61815 10.0846 7.67696 10.2326 7.67696C10.8592 7.67696 11.3221 8.15175 11.3012 8.72477C11.2968 8.87215 11.3509 9.01528 11.4517 9.12292C11.5524 9.23056 11.6917 9.29395 11.839 9.29926C11.9864 9.30457 12.1298 9.25136 12.2381 9.15125C12.3463 9.05114 12.4106 8.91227 12.4168 8.76496C12.4622 7.50728 11.4367 6.56067 10.2326 6.56067Z" fill="#B3B3B3"/>
<path d="M8.00009 0C8.14812 0 8.29009 0.058804 8.39476 0.163476C8.49943 0.268148 8.55823 0.410113 8.55823 0.558141V2.79071C8.55823 2.93873 8.49943 3.0807 8.39476 3.18537C8.29009 3.29004 8.14812 3.34885 8.00009 3.34885C7.85207 3.34885 7.7101 3.29004 7.60543 3.18537C7.50076 3.0807 7.44195 2.93873 7.44195 2.79071V0.558141C7.44195 0.410113 7.50076 0.268148 7.60543 0.163476C7.7101 0.058804 7.85207 0 8.00009 0ZM15.0922 3.18513L13.9759 4.30141C13.9248 4.35625 13.8632 4.40023 13.7947 4.43074C13.7263 4.46124 13.6524 4.47764 13.5774 4.47897C13.5025 4.48029 13.428 4.4665 13.3586 4.43843C13.2891 4.41036 13.2259 4.36858 13.1729 4.31558C13.1199 4.26258 13.0781 4.19944 13.0501 4.12995C13.022 4.06045 13.0082 3.98601 13.0095 3.91107C13.0109 3.83612 13.0273 3.76222 13.0578 3.69375C13.0883 3.62529 13.1322 3.56367 13.1871 3.51257L14.3034 2.39629C14.3545 2.34145 14.4161 2.29747 14.4846 2.26696C14.553 2.23646 14.6269 2.22005 14.7019 2.21873C14.7768 2.21741 14.8512 2.23119 14.9207 2.25926C14.9902 2.28734 15.0534 2.32912 15.1064 2.38212C15.1594 2.43512 15.2012 2.49825 15.2292 2.56775C15.2573 2.63725 15.2711 2.71169 15.2698 2.78663C15.2684 2.86157 15.252 2.93548 15.2215 3.00394C15.191 3.07241 15.147 3.13403 15.0922 3.18513ZM1.69682 2.39629C1.59101 2.2977 1.45107 2.24402 1.30647 2.24657C1.16188 2.24913 1.02392 2.3077 0.921655 2.40996C0.819393 2.51222 0.760817 2.65019 0.758266 2.79478C0.755714 2.93938 0.809388 3.07932 0.907978 3.18513L2.02426 4.30141C2.13007 4.4 2.27001 4.45367 2.4146 4.45112C2.5592 4.44857 2.69716 4.38999 2.79942 4.28773C2.90168 4.18547 2.96026 4.04751 2.96281 3.90291C2.96536 3.75832 2.91169 3.61837 2.8131 3.51257L1.69682 2.39629Z" fill="#B3B3B3"/>
</svg>
