<svg width="54" height="53" viewBox="0 0 54 53" fill="none" xmlns="http://www.w3.org/2000/svg">
<path fill-rule="evenodd" clip-rule="evenodd" d="M38.2778 8.3335C39.7799 8.33341 41.2252 8.94318 42.3181 10.0381C43.4109 11.1329 44.0687 12.6302 44.1569 14.2234L44.1667 14.5904V39.6182C44.1668 41.2142 43.5929 42.7498 42.5624 43.911C41.5319 45.0722 40.1228 45.7711 38.6233 45.8647L38.2778 45.8752H14.7222C13.2202 45.8753 11.7748 45.2655 10.6819 44.1706C9.58907 43.0757 8.93128 41.5785 8.84316 39.9853L8.83334 39.6182V14.5904C8.83326 12.9945 9.40717 11.4588 10.4376 10.2976C11.4681 9.13646 12.8773 8.43755 14.3768 8.34392L14.7222 8.3335H38.2778ZM19.6296 31.2756C18.8977 31.2757 18.192 31.5654 17.6502 32.0882C17.1083 32.6111 16.7692 33.3297 16.6989 34.1038L16.6852 34.4041L16.6989 34.7253C16.7695 35.4991 17.1088 36.2173 17.6506 36.7398C18.1924 37.2624 18.8979 37.5519 19.6296 37.5519C20.3614 37.5519 21.0669 37.2624 21.6087 36.7398C22.1505 36.2173 22.4897 35.4991 22.5603 34.7253L22.5741 34.425L22.5603 34.1038C22.4901 33.3297 22.151 32.6111 21.6091 32.0882C21.0673 31.5654 20.3616 31.2757 19.6296 31.2756ZM33.3704 31.2756C32.6384 31.2757 31.9327 31.5654 31.3909 32.0882C30.8491 32.6111 30.5099 33.3297 30.4397 34.1038L30.4259 34.425C30.4263 35.2284 30.7176 36.0009 31.2394 36.5823C31.7612 37.1638 32.4736 37.5097 33.2289 37.5483C33.9842 37.5869 34.7245 37.3153 35.2964 36.7897C35.8684 36.2642 36.2281 35.525 36.3011 34.7253L36.3148 34.4041C36.3148 33.5744 36.0046 32.7786 35.4524 32.1919C34.9002 31.6052 34.1513 31.2756 33.3704 31.2756ZM26.5 23.9759C25.7681 23.9759 25.0624 24.2656 24.5205 24.7885C23.9787 25.3113 23.6396 26.0299 23.5693 26.804L23.5556 27.1252C23.5559 27.9286 23.8472 28.7011 24.369 29.2826C24.8909 29.864 25.6032 30.2099 26.3585 30.2485C27.1138 30.2871 27.8541 30.0155 28.4261 29.4899C28.998 28.9644 29.3577 28.2252 29.4307 27.4255L29.4445 27.1043C29.4445 26.2746 29.1342 25.4789 28.582 24.8922C28.0299 24.3055 27.2809 23.9759 26.5 23.9759ZM19.6296 16.6761C18.8977 16.6761 18.192 16.9658 17.6502 17.4887C17.1083 18.0116 16.7692 18.7301 16.6989 19.5042L16.6852 19.8046L16.6989 20.1258C16.7695 20.8996 17.1088 21.6178 17.6506 22.1403C18.1924 22.6629 18.8979 22.9523 19.6296 22.9523C20.3614 22.9523 21.0669 22.6629 21.6087 22.1403C22.1505 21.6178 22.4897 20.8996 22.5603 20.1258L22.5741 19.8254L22.5603 19.5042C22.4901 18.7301 22.151 18.0116 21.6091 17.4887C21.0673 16.9658 20.3616 16.6761 19.6296 16.6761ZM33.3704 16.6761C32.6384 16.6761 31.9327 16.9658 31.3909 17.4887C30.8491 18.0116 30.5099 18.7301 30.4397 19.5042L30.4259 19.8254C30.4263 20.6288 30.7176 21.4013 31.2394 21.9828C31.7612 22.5642 32.4736 22.9101 33.2289 22.9487C33.9842 22.9873 34.7245 22.7157 35.2964 22.1902C35.8684 21.6646 36.2281 20.9254 36.3011 20.1258L36.3148 19.8046C36.3148 18.9748 36.0046 18.1791 35.4524 17.5924C34.9002 17.0057 34.1513 16.6761 33.3704 16.6761Z" fill="#B3E378"/>
</svg>
