<svg width="24" height="24" viewBox="0 0 24 24" fill="none" xmlns="http://www.w3.org/2000/svg">
<path d="M20.2929 19.8184C20.6834 19.4279 20.6834 18.7947 20.2929 18.4042L16.7089 14.8202C16.3735 14.4847 16.3276 13.9629 16.5377 13.5376C17.1359 12.3263 17.3515 10.954 17.1442 9.60582C16.8954 7.98784 16.0551 6.51972 14.786 5.4857C13.5169 4.45169 11.9093 3.92534 10.2744 4.00855C8.63956 4.09177 7.09371 4.77864 5.93617 5.93617C4.77864 7.09371 4.09177 8.63956 4.00855 10.2744C3.92534 11.9093 4.45169 13.5169 5.4857 14.786C6.51972 16.0551 7.98784 16.8954 9.60582 17.1442C10.954 17.3515 12.3263 17.1359 13.5376 16.5377C13.9629 16.3276 14.4847 16.3735 14.8202 16.7089L18.4042 20.2929C18.7947 20.6834 19.4279 20.6834 19.8184 20.2929L20.2929 19.8184ZM5.8903 10.6121C5.8903 8.0085 8.0085 5.8903 10.6121 5.8903C13.2157 5.8903 15.3339 8.0085 15.3339 10.6121C15.3339 13.2157 13.2157 15.3339 10.6121 15.3339C8.0085 15.3339 5.8903 13.2157 5.8903 10.6121Z" fill="black"/>
</svg>
