<svg width="18" height="18" viewBox="0 0 18 18" fill="none" xmlns="http://www.w3.org/2000/svg">
<path d="M6.26839 5.83027L8.34716 1.42437C8.40767 1.29687 8.50074 1.18962 8.61592 1.11466C8.73111 1.0397 8.86385 1 8.99928 1C9.1347 1 9.26745 1.0397 9.38264 1.11466C9.49782 1.18962 9.59088 1.29687 9.6514 1.42437L11.7302 5.83027L16.3774 6.54101C16.5114 6.56057 16.6376 6.6194 16.7414 6.71079C16.8452 6.80217 16.9225 6.92243 16.9644 7.05783C17.0064 7.19324 17.0113 7.33833 16.9787 7.47655C16.9461 7.61477 16.8772 7.74056 16.7799 7.83954L13.4177 11.2669L14.2114 16.109C14.313 16.7305 13.6889 17.2038 13.1552 16.9107L8.99928 14.6235L4.84253 16.9107C4.30964 17.2046 3.68553 16.7305 3.78715 16.1082L4.58089 11.2661L1.21869 7.8387C1.12186 7.73965 1.05337 7.61399 1.02102 7.47601C0.988669 7.33804 0.993743 7.19328 1.03567 7.05819C1.07759 6.9231 1.15469 6.80309 1.25819 6.71182C1.36169 6.62054 1.48744 6.56166 1.62116 6.54185L6.26839 5.83027Z" fill="#B3E378" stroke="#B3E378" stroke-width="1.5" stroke-linecap="round" stroke-linejoin="round"/>
</svg>
