<svg width="12" height="12" viewBox="0 0 12 12" fill="none" xmlns="http://www.w3.org/2000/svg">
<path d="M1.85065 6.54688V6.5495C1.83591 6.60507 1.81036 6.6572 1.77547 6.7029C1.74057 6.74859 1.69701 6.78696 1.64728 6.81581C1.59755 6.84466 1.54261 6.86342 1.48562 6.87102C1.42863 6.87863 1.3707 6.87492 1.31515 6.86012C0.93802 6.76037 1.00452 6.3255 1.00452 6.3255L1.02027 6.27125C1.02027 6.27125 1.04302 6.19775 1.0614 6.14437C1.28594 5.5148 1.61649 4.92826 2.03877 4.41013C2.82365 3.45288 4.14402 2.5 6.23965 2.5C8.33527 2.5 9.65565 3.45288 10.4414 4.41013C10.8637 4.92826 11.1942 5.5148 11.4188 6.14437C11.4376 6.19848 11.4551 6.25304 11.4713 6.308L11.4739 6.31937V6.32288L11.4748 6.32463C11.5025 6.43598 11.4854 6.55379 11.4271 6.65265C11.3688 6.7515 11.274 6.8235 11.1631 6.85311C11.0523 6.88272 10.9342 6.86759 10.8344 6.81096C10.7346 6.75433 10.661 6.66074 10.6295 6.55037L10.6286 6.54688L10.6216 6.525L10.591 6.42963C10.4003 5.89808 10.1207 5.40279 9.76415 4.96487C9.1149 4.173 8.02902 3.375 6.23965 3.375C4.45027 3.375 3.36527 4.173 2.71515 4.96487C2.35858 5.40279 2.07898 5.89808 1.88827 6.42963L1.85765 6.525L1.85065 6.54688ZM4.05215 7.3125C4.05215 6.73234 4.28261 6.17594 4.69285 5.7657C5.10309 5.35547 5.65948 5.125 6.23965 5.125C6.81981 5.125 7.37621 5.35547 7.78644 5.7657C8.19668 6.17594 8.42715 6.73234 8.42715 7.3125C8.42715 7.89266 8.19668 8.44906 7.78644 8.8593C7.37621 9.26953 6.81981 9.5 6.23965 9.5C5.65948 9.5 5.10309 9.26953 4.69285 8.8593C4.28261 8.44906 4.05215 7.89266 4.05215 7.3125Z" fill="#1D1D1D"/>
</svg>
