<svg width="16" height="16" viewBox="0 0 16 16" fill="none" xmlns="http://www.w3.org/2000/svg">
<path fill-rule="evenodd" clip-rule="evenodd" d="M2.04652 14.8839H0.558141C0.410113 14.8839 0.268148 14.9427 0.163476 15.0474C0.058804 15.1521 0 15.294 0 15.4421C0 15.5901 0.058804 15.7321 0.163476 15.8367C0.268148 15.9414 0.410113 16.0002 0.558141 16.0002H15.4419C15.5899 16.0002 15.7319 15.9414 15.8366 15.8367C15.9412 15.7321 16.0001 15.5901 16.0001 15.4421C16.0001 15.294 15.9412 15.1521 15.8366 15.0474C15.7319 14.9427 15.5899 14.8839 15.4419 14.8839H13.9535V10.9769C13.9535 8.89322 13.9535 7.85135 13.548 7.05507C13.1912 6.35496 12.622 5.78575 11.9219 5.42902C11.1256 5.02344 10.0838 5.02344 8.00003 5.02344C5.9163 5.02344 4.87443 5.02344 4.07815 5.42902C3.37804 5.78575 2.80883 6.35496 2.4521 7.05507C2.04652 7.85135 2.04652 8.89322 2.04652 10.9769V14.8839ZM9.11631 12.0932C9.11643 12.2893 9.06491 12.4819 8.96693 12.6518C8.86895 12.8216 8.72797 12.9626 8.55817 13.0607V14.8839H7.44188V13.0607C7.27221 12.9627 7.13131 12.8218 7.03334 12.6522C6.93537 12.4825 6.88377 12.29 6.88374 12.0941C6.88371 11.8982 6.93524 11.7057 7.03316 11.536C7.13108 11.3663 7.27194 11.2254 7.44158 11.1274C7.61121 11.0294 7.80366 10.9777 7.99958 10.9777C8.1955 10.9776 8.38799 11.0291 8.5577 11.1269C8.72742 11.2248 8.86839 11.3656 8.96644 11.5353C9.0645 11.7049 9.11618 11.8973 9.11631 12.0932ZM10.2326 6.56019C10.0846 6.56019 9.9426 6.61899 9.83793 6.72366C9.73325 6.82833 9.67445 6.9703 9.67445 7.11833C9.67445 7.26636 9.73325 7.40832 9.83793 7.51299C9.9426 7.61767 10.0846 7.67647 10.2326 7.67647C10.8592 7.67647 11.3221 8.15126 11.3012 8.72429C11.2968 8.87166 11.3509 9.0148 11.4517 9.12243C11.5524 9.23007 11.6917 9.29346 11.839 9.29877C11.9864 9.30408 12.1298 9.25087 12.2381 9.15076C12.3463 9.05065 12.4106 8.91178 12.4168 8.76447C12.4622 7.50679 11.4367 6.56019 10.2326 6.56019Z" fill="black"/>
<path d="M8.00006 0C8.14809 0 8.29006 0.058804 8.39473 0.163476C8.4994 0.268148 8.5582 0.410113 8.5582 0.558141V2.79071C8.5582 2.93873 8.4994 3.0807 8.39473 3.18537C8.29006 3.29004 8.14809 3.34885 8.00006 3.34885C7.85203 3.34885 7.71007 3.29004 7.6054 3.18537C7.50073 3.0807 7.44192 2.93873 7.44192 2.79071V0.558141C7.44192 0.410113 7.50073 0.268148 7.6054 0.163476C7.71007 0.058804 7.85203 0 8.00006 0ZM15.0922 3.18513L13.9759 4.30141C13.9248 4.35625 13.8632 4.40023 13.7947 4.43074C13.7263 4.46124 13.6523 4.47764 13.5774 4.47897C13.5025 4.48029 13.428 4.4665 13.3585 4.43843C13.289 4.41036 13.2259 4.36858 13.1729 4.31558C13.1199 4.26258 13.0781 4.19944 13.05 4.12995C13.022 4.06045 13.0082 3.98601 13.0095 3.91107C13.0108 3.83612 13.0272 3.76222 13.0577 3.69375C13.0882 3.62529 13.1322 3.56367 13.1871 3.51257L14.3033 2.39629C14.3544 2.34145 14.4161 2.29747 14.4845 2.26696C14.553 2.23646 14.6269 2.22005 14.7018 2.21873C14.7768 2.21741 14.8512 2.23119 14.9207 2.25926C14.9902 2.28734 15.0533 2.32912 15.1063 2.38212C15.1593 2.43512 15.2011 2.49825 15.2292 2.56775C15.2573 2.63725 15.2711 2.71169 15.2697 2.78663C15.2684 2.86157 15.252 2.93548 15.2215 3.00394C15.191 3.07241 15.147 3.13403 15.0922 3.18513ZM1.69679 2.39629C1.59098 2.2977 1.45104 2.24402 1.30644 2.24657C1.16185 2.24913 1.02389 2.3077 0.921624 2.40996C0.819363 2.51222 0.760786 2.65019 0.758235 2.79478C0.755684 2.93938 0.809357 3.07932 0.907947 3.18513L2.02423 4.30141C2.13003 4.4 2.26998 4.45367 2.41457 4.45112C2.55917 4.44857 2.69713 4.38999 2.79939 4.28773C2.90165 4.18547 2.96023 4.04751 2.96278 3.90291C2.96533 3.75832 2.91166 3.61837 2.81307 3.51257L1.69679 2.39629Z" fill="black"/>
</svg>
