<svg width="24" height="24" viewBox="0 0 24 24" fill="none" xmlns="http://www.w3.org/2000/svg">
<path d="M20.1091 4.41971L20.5753 4.88093C21.2178 5.51725 21.1206 6.64527 20.3564 7.40041L10.7415 16.9116L7.62642 18.0388C7.23525 18.1811 6.85435 17.9966 6.77691 17.6284C6.75082 17.4949 6.76314 17.3567 6.81247 17.2298L7.97412 14.1216L17.5621 4.63625C18.3263 3.88111 19.4666 3.78339 20.1091 4.41971ZM10.3219 5.36559C10.4257 5.36559 10.5285 5.38581 10.6243 5.4251C10.7202 5.46438 10.8073 5.52197 10.8807 5.59456C10.9541 5.66714 11.0123 5.75332 11.052 5.84816C11.0917 5.94301 11.1122 6.04466 11.1122 6.14732C11.1122 6.24997 11.0917 6.35162 11.052 6.44647C11.0123 6.54131 10.9541 6.62749 10.8807 6.70007C10.8073 6.77266 10.7202 6.83025 10.6243 6.86953C10.5285 6.90882 10.4257 6.92904 10.3219 6.92904H7.16097C6.7418 6.92904 6.33979 7.09375 6.0434 7.38696C5.747 7.68016 5.58048 8.07783 5.58048 8.49248V17.8731C5.58048 18.2878 5.747 18.6854 6.0434 18.9786C6.33979 19.2718 6.7418 19.4366 7.16097 19.4366H16.6439C17.063 19.4366 17.465 19.2718 17.7614 18.9786C18.0578 18.6854 18.2243 18.2878 18.2243 17.8731V14.7462C18.2243 14.5389 18.3076 14.3401 18.4558 14.1935C18.604 14.0469 18.805 13.9645 19.0146 13.9645C19.2242 13.9645 19.4252 14.0469 19.5734 14.1935C19.7216 14.3401 19.8048 14.5389 19.8048 14.7462V17.8731C19.8048 18.7024 19.4718 19.4978 18.879 20.0842C18.2862 20.6706 17.4822 21 16.6439 21H7.16097C6.32263 21 5.51862 20.6706 4.92583 20.0842C4.33303 19.4978 4 18.7024 4 17.8731V8.49248C4 7.66318 4.33303 6.86784 4.92583 6.28144C5.51862 5.69503 6.32263 5.36559 7.16097 5.36559H10.3219Z" fill="black"/>
</svg>
